<svg width="31" height="22" viewBox="0 0 31 22" fill="none" xmlns="http://www.w3.org/2000/svg">
    <path d="M0.333344 4C0.333344 1.79086 2.1242 0 4.33334 0H26.3333C28.5425 0 30.3333 1.79086 30.3333 4V18C30.3333 20.2091 28.5425 22 26.3333 22H4.33334C2.1242 22 0.333344 20.2091 0.333344 18V4Z" fill="#EE1C25"/>
    <path d="M3.93337 8.13998L5.95835 2.19998L7.98332 8.13998L2.58339 4.50998H9.33331L3.93337 8.13998Z" fill="#FFFF00"/>
    <path d="M12.7164 2.31385L10.6324 2.76541L12.0225 1.18156L11.8861 3.31321L10.7297 1.42606L12.7164 2.31385Z" fill="#FFFF00"/>
    <path d="M14.8196 4.92005L12.7196 4.54598L14.6291 3.61325L13.6579 5.52635L13.3405 3.34835L14.8196 4.92005Z" fill="#FFFF00"/>
    <path d="M14.513 8.57656L12.7517 7.39757L14.8842 7.30744L13.1995 8.66689L13.8182 6.55169L14.513 8.57656Z" fill="#FFFF00"/>
    <path d="M11.8641 10.9652L10.7051 9.21254L12.7078 9.93476L10.6168 10.5525L12.0229 8.83506L11.8641 10.9652Z" fill="#FFFF00"/>
</svg>
