<svg width="30" height="22" viewBox="0 0 30 22" fill="none" xmlns="http://www.w3.org/2000/svg">
    <g clip-path="url(#clip0_557_17066)">
        <path fill-rule="evenodd" clip-rule="evenodd" d="M-0.000579834 0.00112915H30.0053V22.0011H-0.000579834V0.00112915Z" fill="white"/>
        <path fill-rule="evenodd" clip-rule="evenodd" d="M21.6164 15.3303L25.5162 17.8734Z" fill="black"/>
        <path d="M21.6164 15.3303L25.5162 17.8734" stroke="white" stroke-width="10"/>
        <path fill-rule="evenodd" clip-rule="evenodd" d="M10.307 7.97812C11.1401 6.75856 12.4311 5.90928 13.8959 5.6171C15.3607 5.32491 16.8794 5.61377 18.1179 6.42012C19.3564 7.22647 20.2131 8.48426 20.4998 9.9168C20.7864 11.3493 20.4794 12.8393 19.6463 14.0588L10.307 7.97812Z" fill="#CD2E3A"/>
        <path fill-rule="evenodd" clip-rule="evenodd" d="M10.325 7.96483C9.4925 9.18333 9.18571 10.672 9.47212 12.1032C9.75854 13.5345 10.6147 14.7912 11.8523 15.5969C13.0898 16.4025 14.6074 16.6911 16.0712 16.3992C17.535 16.1073 18.825 15.2587 19.6575 14.0402C20.0738 13.431 20.2272 12.6867 20.084 11.971C19.9408 11.2554 19.5127 10.627 18.8939 10.2242C18.2751 9.82139 17.5163 9.67709 16.7844 9.82305C16.0525 9.96901 15.4075 10.3933 14.9913 11.0025L10.325 7.96483Z" fill="#0047A0"/>
        <path d="M14.9787 10.9993C15.845 9.73135 15.5033 8.0239 14.2155 7.18557C12.9277 6.34724 11.1814 6.69549 10.3151 7.96341C9.4488 9.23133 9.7905 10.9388 11.0783 11.7771C12.3661 12.6154 14.1124 12.2672 14.9787 10.9993Z" fill="#CD2E3A"/>
        <path fill-rule="evenodd" clip-rule="evenodd" d="M3.28682 6.69586L6.42194 2.10739L7.19836 2.61282L4.06325 7.20129L3.28682 6.69586ZM4.45146 7.454L7.58658 2.86554L8.36301 3.37096L5.22789 7.95943L4.45146 7.454ZM5.61611 8.21215L8.75122 3.62368L9.52765 4.12911L6.39253 8.71757L5.61611 8.21215Z" fill="black"/>
        <path fill-rule="evenodd" clip-rule="evenodd" d="M20.4459 17.8853L23.581 13.2968L24.3574 13.8022L21.2223 18.3907L20.4459 17.8853ZM21.6105 18.6434L24.7456 14.0549L25.5221 14.5604L22.3869 19.1488L21.6105 18.6434ZM22.7752 19.4015L25.9103 14.8131L26.6867 15.3185L23.5516 19.907L22.7752 19.4015Z" fill="black"/>
        <path fill-rule="evenodd" clip-rule="evenodd" d="M5.83516 16.985L7.0051 16.2221ZM21.6293 6.68574L22.9942 5.79568ZM24.1642 5.03277L25.3341 4.26986Z" fill="black"/>
        <path d="M5.83516 16.985L7.0051 16.2221M21.6293 6.68574L22.9942 5.79568M24.1642 5.03277L25.3341 4.26986" stroke="white" stroke-width="10"/>
        <path fill-rule="evenodd" clip-rule="evenodd" d="M6.43483 19.9087L3.29971 15.3202L4.07614 14.8148L7.21126 19.4033L6.43483 19.9087ZM7.59947 19.1505L4.46436 14.5621L5.24079 14.0567L8.3759 18.6451L7.59947 19.1505ZM8.76412 18.3924L5.629 13.8039L6.40543 13.2985L9.54054 17.887L8.76412 18.3924Z" fill="black"/>
        <path fill-rule="evenodd" clip-rule="evenodd" d="M23.5939 8.7193L20.4588 4.13083L21.2352 3.6254L24.3703 8.21387L23.5939 8.7193ZM24.7585 7.96116L21.6234 3.37269L22.3998 2.86726L25.535 7.45573L24.7585 7.96116ZM25.9232 7.20302L22.7881 2.61455L23.5645 2.10912L26.6996 6.69759L25.9232 7.20302Z" fill="black"/>
    </g>
    <defs>
        <clipPath id="clip0_557_17066">
            <rect width="30" height="22" rx="4" fill="white"/>
        </clipPath>
    </defs>
</svg>
