<svg width="24" height="24" viewBox="0 0 24 24" fill="none" xmlns="http://www.w3.org/2000/svg">
    <g clip-path="url(#clip0_522_1188)">
        <path d="M16.0769 14.2221C15.4263 14.2226 14.7856 14.3764 14.2101 14.6702C13.6346 14.9641 13.1416 15.3891 12.7736 15.9086L9.75417 13.4596C10.152 12.5294 10.1535 11.4845 9.75847 10.5531L12.7701 8.09156C13.3155 8.85548 14.1256 9.40479 15.0535 9.63985C15.9813 9.8749 16.9654 9.78014 17.8272 9.37274C18.6891 8.96534 19.3716 8.27229 19.751 7.41931C20.1304 6.56633 20.1815 5.60991 19.8951 4.72354C19.6087 3.83717 19.0038 3.07956 18.19 2.58814C17.3762 2.09671 16.4075 1.90402 15.4596 2.04502C14.5116 2.18601 13.6473 2.65136 13.0233 3.35664C12.3993 4.06192 12.057 4.96042 12.0585 5.88917C12.0622 6.10899 12.0852 6.32811 12.1274 6.54414L8.76291 9.16067C8.19185 8.64254 7.47694 8.29724 6.70602 8.16719C5.93509 8.03713 5.14173 8.12798 4.42339 8.42859C3.70505 8.72919 3.09303 9.22644 2.66251 9.85927C2.23199 10.4921 2.00173 11.2329 2.00001 11.9907C1.99829 12.7485 2.22519 13.4903 2.65283 14.125C3.08048 14.7596 3.69024 15.2595 4.4072 15.5631C5.12417 15.8668 5.91711 15.961 6.68862 15.8343C7.46013 15.7075 8.1766 15.3652 8.75 14.8495L12.1299 17.4561C12.0885 17.6719 12.0658 17.8907 12.062 18.1102C12.0618 18.8794 12.2972 19.6314 12.7384 20.2711C13.1796 20.9108 13.8068 21.4094 14.5406 21.7038C15.2744 21.9983 16.0819 22.0753 16.861 21.9253C17.6401 21.7753 18.3557 21.4049 18.9174 20.8609C19.4791 20.317 19.8615 19.624 20.0165 18.8695C20.1714 18.1151 20.0918 17.3331 19.7877 16.6224C19.4837 15.9118 18.9688 15.3044 18.3083 14.8771C17.6478 14.4499 16.8712 14.2219 16.0769 14.2221ZM16.0769 3.66679C16.5308 3.66662 16.9746 3.79682 17.3521 4.04092C17.7296 4.28502 18.0239 4.63205 18.1977 5.03812C18.3715 5.4442 18.4171 5.89107 18.3287 6.32223C18.2402 6.75338 18.0217 7.14945 17.7008 7.46034C17.3799 7.77123 16.971 7.98297 16.5258 8.06879C16.0806 8.15461 15.6191 8.11065 15.1998 7.94247C14.7804 7.77428 14.4219 7.48944 14.1697 7.12395C13.9175 6.75846 13.7829 6.32875 13.7829 5.88917C13.7834 5.30004 14.0252 4.73515 14.4553 4.31849C14.8853 3.90183 15.4686 3.66745 16.0769 3.66679ZM6.03866 14.2221C5.58474 14.2222 5.14096 14.092 4.76346 13.8479C4.38596 13.6038 4.09168 13.2568 3.91786 12.8507C3.74403 12.4447 3.69846 11.9978 3.78691 11.5666C3.87536 11.1355 4.09386 10.7394 4.41477 10.4285C4.73568 10.1176 5.14459 9.90588 5.58977 9.82007C6.03496 9.73425 6.49643 9.77821 6.91581 9.94639C7.33519 10.1146 7.69366 10.3994 7.94586 10.7649C8.19806 11.1304 8.33267 11.5601 8.33267 11.9997C8.33199 12.5888 8.09011 13.1535 7.66007 13.5701C7.23003 13.9867 6.64694 14.2212 6.03866 14.2221ZM16.0769 20.3326C15.623 20.3326 15.1793 20.2022 14.8019 19.958C14.4246 19.7138 14.1304 19.3668 13.9567 18.9607C13.783 18.5546 13.7376 18.1077 13.8261 17.6766C13.9147 17.2455 14.1332 16.8495 14.4542 16.5387C14.7751 16.2279 15.184 16.0163 15.6292 15.9305C16.0744 15.8448 16.5358 15.8888 16.9551 16.057C17.3745 16.2252 17.7329 16.51 17.985 16.8755C18.2372 17.241 18.3718 17.6707 18.3718 18.1102C18.3713 18.6995 18.1294 19.2645 17.6991 19.6812C17.2689 20.0979 16.6854 20.3321 16.0769 20.3326Z" fill="white"/>
    </g>
    <defs>
        <clipPath id="clip0_522_1188">
            <rect width="19" height="20" fill="white" transform="translate(2 2)"/>
        </clipPath>
    </defs>
</svg>
