<svg width="34" height="34" viewBox="0 0 34 34" fill="none" xmlns="http://www.w3.org/2000/svg">
    <rect width="34" height="34" rx="17" fill="white"/>
    <path d="M26.56 15.74L25.2 14.16C24.94 13.86 24.73 13.3 24.73 12.9V11.2C24.73 10.14 23.86 9.27 22.8 9.27H21.1C20.71 9.27 20.14 9.06 19.84 8.8L18.26 7.44C17.57 6.85 16.44 6.85 15.74 7.44L14.17 8.81C13.87 9.06 13.3 9.27 12.91 9.27H11.18C10.12 9.27 9.25 10.14 9.25 11.2V12.91C9.25 13.3 9.04 13.86 8.79 14.16L7.44 15.75C6.86 16.44 6.86 17.56 7.44 18.25L8.79 19.84C9.04 20.14 9.25 20.7 9.25 21.09V22.8C9.25 23.86 10.12 24.73 11.18 24.73H12.91C13.3 24.73 13.87 24.94 14.17 25.2L15.75 26.56C16.44 27.15 17.57 27.15 18.27 26.56L19.85 25.2C20.15 24.94 20.71 24.73 21.11 24.73H22.81C23.87 24.73 24.74 23.86 24.74 22.8V21.1C24.74 20.71 24.95 20.14 25.21 19.84L26.57 18.26C27.15 17.57 27.15 16.43 26.56 15.74ZM21.16 15.11L16.33 19.94C16.19 20.08 16 20.16 15.8 20.16C15.6 20.16 15.41 20.08 15.27 19.94L12.85 17.52C12.56 17.23 12.56 16.75 12.85 16.46C13.14 16.17 13.62 16.17 13.91 16.46L15.8 18.35L20.1 14.05C20.39 13.76 20.87 13.76 21.16 14.05C21.45 14.34 21.45 14.82 21.16 15.11Z" fill="#466EE0"/>
</svg>
