<svg width="44" height="44" viewBox="0 0 44 44" fill="none" xmlns="http://www.w3.org/2000/svg">
    <rect width="44" height="44" rx="22" fill="#466EE0"/>
    <path d="M22 12V19L24 17" stroke="white" stroke-width="1.5" stroke-linecap="round"
          stroke-linejoin="round"/>
    <path d="M22 19L20 17" stroke="white" stroke-width="1.5" stroke-linecap="round"
          stroke-linejoin="round"/>
    <path
            d="M11.98 23H16.39C16.77 23 17.11 23.21 17.28 23.55L18.45 25.89C18.79 26.57 19.48 27 20.24 27H23.77C24.53 27 25.22 26.57 25.56 25.89L26.73 23.55C26.9 23.21 27.25 23 27.62 23H31.98"
            stroke="white" stroke-width="1.5" stroke-linecap="round" stroke-linejoin="round"/>
    <path
            d="M17 14.13C13.46 14.65 12 16.73 12 21V25C12 30 14 32 19 32H25C30 32 32 30 32 25V21C32 16.73 30.54 14.65 27 14.13"
            stroke="white" stroke-width="1.5" stroke-linecap="round" stroke-linejoin="round"/>
</svg>
