<svg width="66" height="66" viewBox="0 0 66 66" fill="none" xmlns="http://www.w3.org/2000/svg">
    <circle cx="33" cy="33" r="29.1667" stroke="#178650" stroke-width="6"/>
    <path d="M7.98941 17.986C5.35086 22.3719 3.83334 27.5087 3.83334 33C3.83334 49.1083 16.8917 62.1667 33 62.1667C49.1083 62.1667 62.1667 49.1083 62.1667 33C62.1667 16.8917 49.1083 3.83334 33 3.83334" stroke="#10B364" stroke-width="6"/>
    <circle opacity="0.2" cx="33" cy="33" r="15.5556" fill="#10B364"/>
    <path fill-rule="evenodd" clip-rule="evenodd" d="M33 25.2222C32.4465 25.2222 31.9816 25.6384 31.9204 26.1885L31.0556 33.9722H29.5809C28.69 33.9722 28.2438 35.0494 28.8738 35.6793L32.2929 39.0984C32.6834 39.489 33.3166 39.489 33.7071 39.0985L37.1262 35.6793C37.7562 35.0494 37.31 33.9722 36.4191 33.9722H34.9445L34.0796 26.1885C34.0185 25.6384 33.5535 25.2222 33 25.2222Z" fill="#00B167"/>
</svg>
