<svg width="66" height="66" viewBox="0 0 66 66" fill="none" xmlns="http://www.w3.org/2000/svg">
    <circle cx="33" cy="33" r="29.1667" stroke="#FF9D9D" stroke-width="6"/>
    <path d="M60.9759 24.7244C60.0684 21.6517 58.6684 18.7902 56.8674 16.2314" stroke="#FF7C7C" stroke-width="6"/>
    <path d="M51.7167 55.3701C58.1046 50.0198 62.1667 41.9843 62.1667 33C62.1667 30.1254 61.7508 27.3479 60.976 24.7244" stroke="#FF5B5B" stroke-width="6"/>
    <path d="M45.895 59.1685C47.9901 58.1342 49.9431 56.8556 51.7167 55.3701" stroke="#E65252" stroke-width="6"/>
    <path d="M33 3.83333C29.7036 3.83333 26.5349 4.38018 23.5798 5.38811C12.094 9.30556 3.83334 20.1881 3.83334 33C3.83334 49.1083 16.8917 62.1667 33 62.1667C37.6295 62.1667 42.007 61.0881 45.895 59.1685" stroke="#B34040" stroke-width="6"/>
    <path d="M33 3.83333C29.7036 3.83333 26.535 4.38018 23.5798 5.38811" stroke="#802E2E" stroke-width="6"/>
    <circle opacity="0.2" cx="33" cy="33" r="15.5556" fill="#FF5B5B"/>
    <path fill-rule="evenodd" clip-rule="evenodd" d="M29.5809 31.0555C28.69 31.0555 28.2438 29.9784 28.8738 29.3484L32.2929 25.9293C32.6834 25.5388 33.3166 25.5388 33.7071 25.9293L37.1262 29.3484C37.7562 29.9784 37.31 31.0555 36.4191 31.0555H29.5809ZM33 39.8056C32.4465 39.8056 31.9815 39.3894 31.9204 38.8393L31.0556 31.0556H34.9445L34.0796 38.8393C34.0185 39.3894 33.5535 39.8056 33 39.8056Z" fill="#FF5B5B"/>
</svg>
