<svg width="26" height="26" viewBox="0 0 26 26" fill="none" xmlns="http://www.w3.org/2000/svg">
    <path d="M11.5126 23.9517C11.5126 23.7358 11.574 23.5247 11.6889 23.3451C11.8039 23.1656 11.9673 23.0257 12.1585 22.943C12.3497 22.8604 12.56 22.8388 12.763 22.8809C12.966 22.923 13.1524 23.027 13.2987 23.1797C13.445 23.3324 13.5447 23.5269 13.5851 23.7387C13.6254 23.9505 13.6047 24.17 13.5255 24.3695C13.4463 24.569 13.3122 24.7395 13.1402 24.8595C12.9681 24.9794 12.7658 25.0435 12.5589 25.0435C12.2814 25.0435 12.0153 24.9285 11.819 24.7237C11.6228 24.519 11.5126 24.2413 11.5126 23.9517ZM16.2575 21.635C16.4536 21.4302 16.5638 21.1526 16.5638 20.8631C16.5638 20.5736 16.4536 20.2959 16.2575 20.0912C15.2765 19.0678 13.9461 18.4929 12.5589 18.4929C11.1717 18.4929 9.8413 19.0678 8.86027 20.0912C8.66968 20.2971 8.56422 20.5729 8.5666 20.8591C8.56898 21.1454 8.67902 21.4192 8.87301 21.6217C9.067 21.8241 9.32942 21.9389 9.60375 21.9414C9.87809 21.9439 10.1424 21.8338 10.3397 21.635C10.9379 21.04 11.7325 20.7081 12.5589 20.7081C13.3852 20.7081 14.1799 21.04 14.7781 21.635C14.9743 21.8396 15.2403 21.9546 15.5178 21.9546C15.7952 21.9546 16.0613 21.8396 16.2575 21.635ZM19.2174 18.5474C19.4136 18.3427 19.5238 18.065 19.5238 17.7755C19.5238 17.486 19.4136 17.2084 19.2174 17.0036C17.4501 15.1636 15.0555 14.1301 12.5589 14.1301C10.0623 14.1301 7.66763 15.1636 5.90032 17.0036C5.70974 17.2096 5.60428 17.4853 5.60666 17.7716C5.60904 18.0579 5.71908 18.3317 5.91307 18.5341C6.10706 18.7365 6.36948 18.8514 6.64381 18.8538C6.91815 18.8563 7.18244 18.7463 7.37977 18.5474C8.7548 17.1169 10.6172 16.3137 12.5589 16.3137C14.5005 16.3137 16.363 17.1169 17.738 18.5474C17.9342 18.7521 18.2003 18.8671 18.4777 18.8671C18.7552 18.8671 19.0212 18.7521 19.2174 18.5474ZM6.26757 23.0357C6.2897 22.8942 6.2849 22.7495 6.25344 22.6099C6.22198 22.4704 6.16449 22.3386 6.08423 22.2222C6.00398 22.1059 5.90254 22.0071 5.78572 21.9316C5.66889 21.8561 5.53896 21.8054 5.40334 21.7823C4.61272 21.6519 3.87807 21.276 3.29507 20.7037C2.71207 20.1314 2.30774 19.3891 2.13474 18.5736C2.02216 17.7938 2.14538 16.9968 2.48725 16.2935C2.82913 15.5902 3.37264 15.0156 4.04212 14.6498C4.52407 14.3738 4.88259 13.911 5.04019 13.3615C5.1978 12.8119 5.14183 12.2197 4.88438 11.7129C4.47755 10.9044 4.2372 10.0161 4.17877 9.10493C4.12034 8.19379 4.24512 7.27997 4.5451 6.42212C4.84508 5.56427 5.31363 4.78134 5.92068 4.12359C6.52773 3.46583 7.25986 2.94778 8.07009 2.60269C8.88032 2.2576 9.75075 2.09308 10.6255 2.1197C11.5003 2.14633 12.36 2.3635 13.1496 2.75729C13.9392 3.15107 14.6411 3.71277 15.2104 4.40633C15.7797 5.09988 16.2037 5.90998 16.4552 6.78462C16.6101 7.31162 16.886 7.79119 17.2589 8.18163C17.6317 8.57207 18.0904 8.86156 18.5949 9.02494C19.9617 9.45913 21.1447 10.369 21.9466 11.6029C22.7485 12.8368 23.121 14.3203 23.0019 15.806C22.9083 16.9217 22.5273 17.9902 21.8992 18.8983C21.2711 19.8065 20.4193 20.5205 19.434 20.9646C19.19 21.093 19.0038 21.3158 18.9153 21.5855C18.8267 21.8553 18.8427 22.1505 18.96 22.408C19.0772 22.6655 19.2864 22.865 19.5427 22.9637C19.7991 23.0625 20.0823 23.0526 20.3317 22.9364C21.653 22.3321 22.7929 21.366 23.6305 20.1404C24.4681 18.9148 24.9722 17.4755 25.0892 15.9752C25.2472 13.9944 24.7497 12.0169 23.6797 10.3724C22.6097 8.72801 21.0318 7.51602 19.2091 6.93856C19.0296 6.88036 18.8667 6.77673 18.7349 6.63691C18.6031 6.49709 18.5065 6.32542 18.4537 6.13719C17.8998 4.28126 16.7684 2.67117 15.2386 1.56187C13.7089 0.452576 11.8682 -0.0925371 10.0081 0.012852C8.14802 0.118241 6.37475 0.868109 4.96912 2.14372C3.56348 3.41933 2.60581 5.14778 2.24774 7.05538C1.88197 8.98552 2.16969 10.9883 3.06175 12.7217C2.01025 13.2954 1.15632 14.1969 0.618857 15.3008C0.0813898 16.4047 -0.112877 17.6559 0.0630985 18.8804C0.302158 20.1557 0.909821 21.324 1.80433 22.2282C2.69883 23.1323 3.83726 23.7288 5.06644 23.9375C5.20205 23.9606 5.34069 23.9556 5.47445 23.9228C5.60821 23.8899 5.73447 23.8299 5.846 23.7462C5.95754 23.6625 6.05218 23.5566 6.12451 23.4347C6.19684 23.3128 6.24545 23.1772 6.26757 23.0357Z" fill="#466EE0"/>
</svg>
