<svg width="24" height="25" viewBox="0 0 24 25" fill="none" xmlns="http://www.w3.org/2000/svg">
    <path fill-rule="evenodd" clip-rule="evenodd" d="M2.73684 15.1466C3.69607 15.1466 4.47368 15.9096 4.47368 16.8509V20.5175C4.48872 20.5279 4.50654 20.5396 4.52752 20.5524C4.74977 20.6884 5.16384 20.8275 5.7093 20.8275H18.2907C18.8362 20.8275 19.2502 20.6884 19.4725 20.5524C19.4935 20.5396 19.5113 20.5279 19.5263 20.5175V16.8509C19.5263 15.9096 20.3039 15.1466 21.2632 15.1466C22.2224 15.1466 23 15.9096 23 16.8509V20.7125C23 22.018 22.1384 22.9384 21.3098 23.4451C20.4553 23.9677 19.3831 24.236 18.2907 24.236H5.7093C4.61687 24.236 3.54471 23.9677 2.69021 23.4451C1.86161 22.9384 1 22.018 1 20.7125V16.8509C1 15.9096 1.77761 15.1466 2.73684 15.1466ZM19.5986 20.4565C19.5992 20.4567 19.5961 20.4611 19.5873 20.4695C19.5936 20.4606 19.598 20.4564 19.5986 20.4565ZM4.40138 20.4565C4.40199 20.4564 4.40639 20.4606 4.41275 20.4695C4.40395 20.4611 4.40077 20.4567 4.40138 20.4565Z" fill="#23D288"/>
    <path fill-rule="evenodd" clip-rule="evenodd" d="M10.2632 11.765L7.55479 8.42185C6.94737 7.67208 5.85312 7.56157 5.11072 8.17503C4.36832 8.78849 4.2589 9.8936 4.86632 10.6434L10.0768 17.075L10.0868 17.0871C10.4953 17.5822 11.0341 17.7344 11.2254 17.7833C11.4972 17.8526 11.7676 17.8762 12 17.8762C12.2324 17.8762 12.5029 17.8526 12.7746 17.7833C12.9659 17.7345 13.5048 17.5822 13.9133 17.0872L19.1337 10.6434C19.7412 9.8936 19.6317 8.78848 18.8893 8.17503C18.1469 7.56157 17.0527 7.67208 16.4453 8.42185L13.7369 11.7649V1.99005C13.7369 1.02129 12.9593 0.235962 12.0001 0.235962C11.0408 0.235962 10.2632 1.02129 10.2632 1.99005V11.765Z" fill="url(#paint0_linear_187_7459)"/>
    <defs>
        <linearGradient id="paint0_linear_187_7459" x1="4.47366" y1="-0.100766" x2="21.9476" y2="15.0913" gradientUnits="userSpaceOnUse">
            <stop stop-color="#4FB4ED"/>
            <stop offset="1" stop-color="#343EDF"/>
        </linearGradient>
    </defs>
</svg>
