<svg width="25" height="24" viewBox="0 0 25 24" fill="none" xmlns="http://www.w3.org/2000/svg">
    <path d="M13.3123 24V19.5734C14.2315 19.5333 15.0538 19.1719 15.7795 18.4893C16.3842 17.8871 16.6865 17.1945 16.6865 16.4115C16.6865 15.2673 15.7432 14.394 13.8566 13.7917C13.6873 13.7516 13.5058 13.7014 13.3123 13.6412V10.1179C14.425 10.3789 15.3562 10.66 16.106 10.9611C18.2103 11.8243 19.5769 12.8482 20.2058 14.0326C20.5686 14.7353 20.75 15.5082 20.75 16.3513C20.75 18.1179 19.9155 19.6437 18.2466 20.9285C17.4 21.5709 16.4688 22.0427 15.4529 22.3438V24H13.3123ZM13.3123 4.6675V0H15.4529V1.92723C17.0735 2.44918 18.3433 3.43287 19.2625 4.87829C19.5043 5.29987 19.6616 5.65119 19.7341 5.93225L15.9609 6.95609C15.8399 6.35383 15.5497 5.86198 15.0901 5.48055C14.6548 5.09912 14.2557 4.86826 13.8928 4.78795L13.3123 4.6675Z" fill="#23D288"/>
    <path d="M8.4144 16.7428L4.75 17.8269C4.77419 18.3287 4.99187 18.8908 5.40306 19.5132C6.32218 20.8984 7.61621 21.8319 9.28515 22.3137V24H11.4257V19.5734L11.0266 19.4529C9.47865 18.9511 8.6079 18.0477 8.4144 16.7428Z" fill="url(#paint0_linear_826_17797)"/>
    <path d="M8.37812 2.37892C6.15287 3.48306 5.04025 5.09912 5.04025 7.2271C5.04025 8.15056 5.22166 8.96361 5.58447 9.66625C6.16497 10.8306 7.47109 11.7842 9.50283 12.527C9.93821 12.6876 10.5792 12.8783 11.4257 13.0991V9.48557C9.78099 8.94354 8.94652 8.17064 8.92234 7.16688C8.92234 6.66499 9.10374 6.19322 9.46655 5.75157C10.0229 5.12923 10.6759 4.76788 11.4257 4.6675V0H9.28515V1.98745C8.9949 2.08783 8.69255 2.21832 8.37812 2.37892Z" fill="url(#paint1_linear_826_17797)"/>
    <defs>
        <linearGradient id="paint0_linear_826_17797" x1="4.75" y1="-0.458128" x2="17.3456" y2="3.11146" gradientUnits="userSpaceOnUse">
            <stop stop-color="#4FB4ED"/>
            <stop offset="1" stop-color="#343EDF"/>
        </linearGradient>
        <linearGradient id="paint1_linear_826_17797" x1="4.75" y1="-0.458128" x2="17.3456" y2="3.11146" gradientUnits="userSpaceOnUse">
            <stop stop-color="#4FB4ED"/>
            <stop offset="1" stop-color="#343EDF"/>
        </linearGradient>
    </defs>
</svg>
