<svg width="30" height="31" viewBox="0 0 30 31" fill="none" xmlns="http://www.w3.org/2000/svg">
    <path d="M15.0118 3.23438C7.82824 3.23438 1.76074 9.30187 1.76074 16.4854C1.76074 23.6689 7.82824 29.7364 15.0118 29.7364C22.1953 29.7364 28.2628 23.6689 28.2628 16.4854C28.2628 9.30187 22.1953 3.23438 15.0118 3.23438ZM15.0118 26.7917C9.42572 26.7917 4.70541 22.0714 4.70541 16.4854C4.70541 10.8994 9.42572 6.17905 15.0118 6.17905C20.5978 6.17905 25.3181 10.8994 25.3181 16.4854C25.3181 22.0714 20.5978 26.7917 15.0118 26.7917Z" fill="#343EDF"/>
    <path d="M16.4844 9.12402H13.5397V15.0134H7.65039V17.958H13.5397V23.8474H16.4844V17.958H22.3737V15.0134H16.4844V9.12402Z" fill="#343EDF"/>
</svg>
