<svg width="1664" height="710" viewBox="0 0 1664 710" fill="none" xmlns="http://www.w3.org/2000/svg">
    <g filter="url(#filter1_b_702_16441)">
        <path d="M27 142.771C27 73.8618 82.8617 18 151.771 18H1502.23C1571.14 18 1627 73.8617 1627 142.771V459.9C1627 517.063 1578.43 562.122 1521.43 557.846C1346.29 544.71 997.182 520.345 817.244 520.345C638.659 520.345 303.69 544.345 132.934 557.548C75.8286 561.963 27 516.868 27 459.592V142.771Z" fill="url(#paint1_linear_702_16441)" fill-opacity="0.2"/>
    </g>
    <g opacity="0.99" filter="url(#filter0_d_702_16441)">
        <path d="M115.073 335.994C115.073 203.608 222.393 96.2875 354.779 96.2875H1299.22C1431.61 96.2875 1538.93 203.608 1538.93 335.994V432.964C1538.93 481.286 1502.86 522.141 1454.86 527.709C997.259 580.797 683.856 577.039 200.6 526.716C151.983 521.653 115.073 480.535 115.073 431.655V335.994Z" fill="url(#paint0_linear_702_16441)"/>
    </g>

    <defs>
        <filter id="filter0_d_702_16441" x="0.0145011" y="0.405088" width="1663.56" height="709.431" filterUnits="userSpaceOnUse" color-interpolation-filters="sRGB">
            <feFlood flood-opacity="0" result="BackgroundImageFix"/>
            <feColorMatrix in="SourceAlpha" type="matrix" values="0 0 0 0 0 0 0 0 0 0 0 0 0 0 0 0 0 0 127 0" result="hardAlpha"/>
            <feOffset dx="4.79412" dy="23.9706"/>
            <feGaussianBlur stdDeviation="59.9265"/>
            <feColorMatrix type="matrix" values="0 0 0 0 0.334306 0 0 0 0 0.397542 0 0 0 0 0.966667 0 0 0 0.15 0"/>
            <feBlend mode="normal" in2="BackgroundImageFix" result="effect1_dropShadow_702_16441"/>
            <feBlend mode="normal" in="SourceGraphic" in2="effect1_dropShadow_702_16441" result="shape"/>
        </filter>
        <filter id="filter1_b_702_16441" x="-291.043" y="-300.043" width="2236.09" height="1176.21" filterUnits="userSpaceOnUse" color-interpolation-filters="sRGB">
            <feFlood flood-opacity="0" result="BackgroundImageFix"/>
            <feGaussianBlur in="BackgroundImageFix" stdDeviation="159.021"/>
            <feComposite in2="SourceAlpha" operator="in" result="effect1_backgroundBlur_702_16441"/>
            <feBlend mode="normal" in="SourceGraphic" in2="effect1_backgroundBlur_702_16441" result="shape"/>
        </filter>
        <linearGradient id="paint0_linear_702_16441" x1="115.073" y1="87.3211" x2="390.474" y2="937.871" gradientUnits="userSpaceOnUse">
            <stop stop-color="#4FB4ED"/>
            <stop offset="1" stop-color="#343EDF"/>
        </linearGradient>
        <linearGradient id="paint1_linear_702_16441" x1="827" y1="18" x2="827" y2="566.012" gradientUnits="userSpaceOnUse">
            <stop stop-color="#BF8CBA"/>
            <stop offset="1" stop-color="#A386A0" stop-opacity="0.44"/>
        </linearGradient>
    </defs>
</svg>
