<svg width="123" height="94" viewBox="0 0 123 94" fill="none" xmlns="http://www.w3.org/2000/svg">
<g filter="url(#filter0_d_414_24614)">
<rect x="11.5" y="6" width="100" height="72" rx="4" fill="white"/>
<rect x="11" y="5.5" width="101" height="73" rx="4.5" stroke="#CCD5E2"/>
</g>
<rect x="11.5" y="6" width="100" height="72" rx="4" fill="#DFE5F0"/>
<rect x="11.5" y="6" width="100" height="56" rx="4" fill="white"/>
<rect x="19.5" y="15" width="24" height="30" rx="4" fill="#D8D8D8"/>
<mask id="mask0_414_24614" style="mask-type:alpha" maskUnits="userSpaceOnUse" x="19" y="15" width="25" height="30">
<rect x="19.5" y="15" width="24" height="30" rx="4" fill="white"/>
</mask>
<g mask="url(#mask0_414_24614)">
<rect x="16.4998" y="15" width="30" height="30" rx="4" fill="#1761C5"/>
<mask id="mask1_414_24614" style="mask-type:alpha" maskUnits="userSpaceOnUse" x="16" y="15" width="31" height="30">
<rect x="16.4998" y="15" width="30" height="30" rx="4" fill="white"/>
</mask>
<g mask="url(#mask1_414_24614)">
<circle opacity="0.21" cx="21.375" cy="17.7183" r="9.28125" stroke="white" stroke-width="3.75"/>
<circle opacity="0.21" cx="45.0938" cy="42.9375" r="12.1875" stroke="white" stroke-width="3.75"/>
<path fill-rule="evenodd" clip-rule="evenodd" d="M28.3212 33.6421C28.4606 31.9904 29.8419 30.7207 31.4995 30.7207C33.1571 30.7207 34.5385 31.9904 34.6778 33.6421L35.1919 39.735C35.3742 41.8967 33.6689 43.752 31.4995 43.752C29.3302 43.752 27.6248 41.8967 27.8072 39.735L28.3212 33.6421Z" fill="white"/>
<mask id="mask2_414_24614" style="mask-type:alpha" maskUnits="userSpaceOnUse" x="27" y="30" width="9" height="14">
<path fill-rule="evenodd" clip-rule="evenodd" d="M28.3212 33.6421C28.4606 31.9904 29.8419 30.7207 31.4995 30.7207C33.1571 30.7207 34.5385 31.9904 34.6778 33.6421L35.1919 39.735C35.3742 41.8967 33.6689 43.752 31.4995 43.752C29.3302 43.752 27.6248 41.8967 27.8072 39.735L28.3212 33.6421Z" fill="white"/>
</mask>
<g mask="url(#mask2_414_24614)">
<path opacity="0.6" fill-rule="evenodd" clip-rule="evenodd" d="M28.3261 31.9323C28.3312 31.9522 28.3367 31.9709 28.3443 31.99C28.4369 32.2242 29.1638 33.8679 31.4519 34.2556C32.3346 34.4052 33.0823 34.4477 33.6786 34.4406C34.6317 34.4292 35.2179 33.5516 35.0685 32.6103C34.9216 31.685 34.1217 31.0052 33.1848 31.0095L29.0245 31.0289C28.5533 31.0311 28.2096 31.4757 28.3261 31.9323Z" fill="#1761C5"/>
</g>
<path fill-rule="evenodd" clip-rule="evenodd" d="M18.7933 40.026C19.118 38.8122 19.9977 37.8084 21.1627 37.3378L24.5358 35.9751C26.5975 35.1422 28.8053 36.2707 30.2093 37.995C30.6288 38.5101 31.0744 38.8709 31.5 38.8709C31.9285 38.8709 32.3785 38.5051 32.8021 37.9843C34.2031 36.2619 36.4108 35.1411 38.469 35.9738L41.839 37.3373C43.003 37.8083 43.8819 38.812 44.2065 40.0251C44.886 42.5652 42.9812 45.0941 40.3518 45.0941H22.6482C20.0188 45.0941 18.1138 42.5661 18.7933 40.026Z" fill="url(#paint0_linear_414_24614)"/>
<mask id="mask3_414_24614" style="mask-type:alpha" maskUnits="userSpaceOnUse" x="18" y="35" width="27" height="11">
<path fill-rule="evenodd" clip-rule="evenodd" d="M18.7933 40.026C19.118 38.8122 19.9977 37.8084 21.1627 37.3378L24.5358 35.9751C26.5975 35.1422 28.8053 36.2707 30.2093 37.995C30.6288 38.5101 31.0744 38.8709 31.5 38.8709C31.9285 38.8709 32.3785 38.5051 32.8021 37.9843C34.2031 36.2619 36.4108 35.1411 38.469 35.9738L41.839 37.3373C43.003 37.8083 43.8819 38.812 44.2065 40.0251C44.886 42.5652 42.9812 45.0941 40.3518 45.0941H22.6482C20.0188 45.0941 18.1138 42.5661 18.7933 40.026Z" fill="white"/>
</mask>
<g mask="url(#mask3_414_24614)">
<rect x="31.3125" y="38.1567" width="0.375" height="7.03125" rx="0.1875" fill="#BECAE4"/>
<path fill-rule="evenodd" clip-rule="evenodd" d="M23.4219 45.0946C23.5487 45.0946 23.6565 45.0021 23.6757 44.8768C23.7216 44.5771 23.3013 44.4594 23.1849 44.7393C23.1146 44.9084 23.2388 45.0946 23.4219 45.0946Z" fill="#BECAE4"/>
<path fill-rule="evenodd" clip-rule="evenodd" d="M40.392 45.0946C40.2653 45.0946 40.1575 45.0021 40.1383 44.8768C40.0924 44.5771 40.5126 44.4594 40.6291 44.7393C40.6994 44.9084 40.5752 45.0946 40.392 45.0946Z" fill="#BECAE4"/>
</g>
<path fill-rule="evenodd" clip-rule="evenodd" d="M26.4177 36.2062C26.2803 35.6427 26.5799 35.068 27.1162 34.8472C27.737 34.5916 28.4425 34.9019 28.7113 35.5171C28.9376 36.0349 29.1614 36.4896 29.3807 36.8832C30.1135 38.198 31.0484 40.1099 30.3286 41.432C30.2006 41.6671 30.0697 41.8345 29.9442 41.879C29.6765 41.9738 28.0395 40.9121 27.0972 38.5811C26.8875 38.0623 26.6106 36.9972 26.4177 36.2062Z" fill="#002F70"/>
<path fill-rule="evenodd" clip-rule="evenodd" d="M36.5735 36.2062C36.7109 35.6427 36.4113 35.068 35.875 34.8472C35.2542 34.5916 34.5487 34.9019 34.2799 35.5171C34.0536 36.0349 33.8298 36.4896 33.6105 36.8832C32.8777 38.198 31.9429 40.1099 32.6626 41.432C32.7906 41.6671 32.9215 41.8345 33.047 41.879C33.3147 41.9738 34.9517 40.9121 35.894 38.5811C36.1037 38.0623 36.3806 36.9972 36.5735 36.2062Z" fill="#002F70"/>
<path fill-rule="evenodd" clip-rule="evenodd" d="M26.9932 24.2463C26.9605 22.0754 28.7329 20.3438 30.9041 20.3438H32.5515C34.7651 20.3438 36.5591 22.1411 36.5249 24.3544C36.4978 26.0986 36.4521 27.9805 36.3754 29.0322C36.3423 29.4852 36.2936 29.9197 36.2366 30.3257C35.994 32.0528 34.4401 33.1875 32.696 33.1875H28.1802C28.0188 33.1875 27.8652 33.1428 27.798 32.9961C27.6409 32.6532 27.3824 31.6971 27.1879 29.0322C27.0693 27.4082 27.0153 25.7079 26.9932 24.2463Z" fill="white"/>
<ellipse cx="29.25" cy="28.2129" rx="0.84375" ry="0.421875" fill="#FDE0D5"/>
<ellipse cx="34.4062" cy="28.2129" rx="0.84375" ry="0.421875" fill="#FDE0D5"/>
<circle cx="29.6719" cy="26.2964" r="0.421875" fill="#002F70"/>
<circle cx="33.9844" cy="26.2964" r="0.421875" fill="#002F70"/>
<path opacity="0.34" fill-rule="evenodd" clip-rule="evenodd" d="M30.0364 20.1296C28.658 20.5282 28.0926 22.3327 29.4626 22.7591C29.7727 22.8556 30.1427 22.8937 30.583 22.837C30.8833 22.7983 31.1659 22.7171 31.4355 22.6116C32.3338 22.2603 32.8487 19.652 31.8907 19.7648C31.1609 19.8508 30.5465 19.982 30.0364 20.1296Z" fill="#325CD8"/>
<path d="M27.9561 21.1216C27.9561 21.1216 28.3204 22.214 30.2144 22.5599" stroke="#002F70" stroke-width="0.5" stroke-linecap="round"/>
<path fill-rule="evenodd" clip-rule="evenodd" d="M27.7065 23.3581C27.5217 24.4538 26.1834 24.5385 25.9841 23.4453C25.7699 22.2706 25.7403 21.0259 26.2496 20.1685C26.7503 19.3259 27.5067 18.4994 28.0107 17.6588C28.3509 17.0914 28.9287 16.5783 29.9079 16.5462C32.1483 16.4726 32.5129 17.2056 34.4318 17.4627C36.3506 17.7199 37.8135 19.5751 37.8135 21.7533C37.8135 22.8493 36.2138 22.6159 35.5436 21.7487C35.3049 21.4398 35.011 21.215 34.6494 21.1221C32.5351 20.5787 31.9206 21.8905 30.5464 21.8905C30.3986 21.8905 30.2527 21.8808 30.1099 21.8635C29.1081 21.7421 27.8744 22.363 27.7065 23.3581Z" fill="#002F70"/>
<path d="M28.6152 24.7671C28.6152 24.7671 29.4656 24.1903 30.4072 24.5611" stroke="#002F70" stroke-width="0.5" stroke-linecap="round"/>
<path d="M35.0945 24.7671C35.0945 24.7671 34.2441 24.1903 33.3025 24.5611" stroke="#002F70" stroke-width="0.5" stroke-linecap="round"/>
<path fill-rule="evenodd" clip-rule="evenodd" d="M36.3777 27.0204C36.3964 26.724 36.4536 26.4268 36.6143 26.177C36.882 25.7609 37.3923 25.252 38.0534 25.9209C38.6598 26.5345 38.4662 27.8137 37.8543 28.5052C37.1373 29.3155 36.3093 28.1001 36.3777 27.0204Z" fill="white"/>
<path d="M36.9509 27.8155C37.0734 27.0211 37.2961 26.5525 37.6189 26.4097" stroke="#CCD4E6" stroke-width="0.5" stroke-linecap="round"/>
<path fill-rule="evenodd" clip-rule="evenodd" d="M27.1546 27.0204C27.1358 26.724 27.0787 26.4268 26.9179 26.177C26.6502 25.7609 26.1399 25.252 25.4788 25.9209C24.8725 26.5345 25.0661 27.8137 25.678 28.5052C26.3949 29.3155 27.2229 28.1001 27.1546 27.0204Z" fill="white"/>
<path d="M26.5815 27.8155C26.4591 27.0211 26.2364 26.5525 25.9136 26.4097" stroke="#CCD4E6" stroke-width="0.5" stroke-linecap="round"/>
<path d="M31.7714 24.7495C31.7714 24.7495 31.7714 25.1242 31.7714 25.7224C31.7714 26.3206 33.0207 28.2196 32.2106 28.4562C31.4005 28.6928 31.4043 28.6771 31.4043 28.6771" stroke="#CCD4E6" stroke-width="0.5" stroke-linecap="round"/>
<path d="M30.6191 30.3857C30.6191 30.3857 32.0513 31.0528 33.1151 30.3857" stroke="#CCD4E6" stroke-width="0.5" stroke-linecap="round"/>
</g>
</g>
<rect x="49.5" y="16.9995" width="19" height="1" rx="0.5" fill="#003D8F"/>
<rect x="77.5" y="52.9995" width="26" height="1" rx="0.5" fill="#CCD5E2"/>
<rect x="49.5" y="26.9995" width="11" height="1" rx="0.5" fill="#003D8F"/>
<rect x="49.5" y="37" width="11" height="1" rx="0.5" fill="#003D8F"/>
<rect x="65.5" y="37" width="8" height="1" rx="0.5" fill="#003D8F"/>
<rect opacity="0.2" x="49.5" y="20" width="26" height="2.5" rx="1.25" fill="#002F70"/>
<rect opacity="0.2" x="79.4998" y="20" width="22" height="2.5" rx="1.25" fill="#002F70"/>
<rect opacity="0.2" x="49.5" y="30.0005" width="20" height="2.5" rx="1.25" fill="#002F70"/>
<rect opacity="0.2" x="49.5" y="40.0005" width="9" height="2.5" rx="1.25" fill="#002F70"/>
<rect opacity="0.2" x="49.5" y="49.9995" width="4" height="4" rx="2" fill="#002F70"/>
<rect opacity="0.2" x="54.5" y="49.9995" width="4" height="4" rx="2" fill="#002F70"/>
<rect opacity="0.2" x="59.5" y="49.9995" width="4" height="4" rx="2" fill="#002F70"/>
<rect opacity="0.2" x="64.5" y="49.9995" width="4" height="4" rx="2" fill="#002F70"/>
<rect opacity="0.2" x="65.5" y="40.0005" width="6" height="2.5" rx="1.25" fill="#002F70"/>
<path d="M80.5 51.0005C80.5 51.0005 85.9267 49.7352 85.4301 48.4716C84.9925 47.358 83.6328 48.3327 84.3917 50.1998C84.5812 50.6658 85.1613 50.778 85.5822 50.5025L86.7669 49.7269C87.1582 49.4707 87.6457 49.8734 87.468 50.306V50.306C87.3354 50.6289 87.5832 50.9691 87.9278 50.9129C88.7851 50.773 90.168 50.4201 90.8956 49.5535C91.9988 48.2395 91.0604 51.0005 91.8999 51.0005C92.7394 51.0005 95.7204 49.5535 94.6529 48.4716C93.5855 47.3897 92.1074 51.0005 94.6529 51.0005C97.1985 51.0005 100.5 48.4716 100.5 48.4716" stroke="#003D8F" stroke-width="0.5" stroke-linecap="round" stroke-linejoin="round"/>
<path d="M20.7 66.001V66.001C20.0295 66.6994 20.0295 67.8025 20.7 68.501V68.501" stroke="white" stroke-width="0.7"/>
<path d="M23.66 66.001V66.001C22.9894 66.6994 22.9894 67.8025 23.66 68.501V68.501" stroke="white" stroke-width="0.7"/>
<path d="M26.6199 66.001V66.001C25.9494 66.6994 25.9494 67.8025 26.6199 68.501V68.501" stroke="white" stroke-width="0.7"/>
<path d="M29.5799 66.001V66.001C28.9094 66.6994 28.9094 67.8025 29.5799 68.501V68.501" stroke="white" stroke-width="0.7"/>
<path d="M32.5401 66.001V66.001C31.8696 66.6994 31.8696 67.8025 32.5401 68.501V68.501" stroke="white" stroke-width="0.7"/>
<path d="M35.4996 66.001V66.001C34.829 66.6994 34.829 67.8025 35.4996 68.501V68.501" stroke="white" stroke-width="0.7"/>
<path d="M38.4598 66.001V66.001C37.7892 66.6994 37.7892 67.8025 38.4598 68.501V68.501" stroke="white" stroke-width="0.7"/>
<path d="M41.4197 66.001V66.001C40.7492 66.6994 40.7492 67.8025 41.4197 68.501V68.501" stroke="white" stroke-width="0.7"/>
<path d="M44.3799 66.001V66.001C43.7094 66.6994 43.7094 67.8025 44.3799 68.501V68.501" stroke="white" stroke-width="0.7"/>
<path d="M47.3399 66.001V66.001C46.6694 66.6994 46.6694 67.8025 47.3399 68.501V68.501" stroke="white" stroke-width="0.7"/>
<path d="M50.3001 66.001V66.001C49.6296 66.6994 49.6296 67.8025 50.3001 68.501V68.501" stroke="white" stroke-width="0.7"/>
<path d="M53.2601 66.001V66.001C52.5895 66.6994 52.5895 67.8025 53.2601 68.501V68.501" stroke="white" stroke-width="0.7"/>
<path d="M56.22 66.001V66.001C55.5495 66.6994 55.5495 67.8025 56.22 68.501V68.501" stroke="white" stroke-width="0.7"/>
<path d="M59.18 66.001V66.001C58.5095 66.6994 58.5095 67.8025 59.18 68.501V68.501" stroke="white" stroke-width="0.7"/>
<path d="M62.1399 66.001V66.001C61.4694 66.6994 61.4694 67.8025 62.1399 68.501V68.501" stroke="white" stroke-width="0.7"/>
<path d="M65.0994 66.001V66.001C64.4289 66.6994 64.4289 67.8025 65.0994 68.501V68.501" stroke="white" stroke-width="0.7"/>
<path d="M68.0596 66.001V66.001C67.3891 66.6994 67.3891 67.8025 68.0596 68.501V68.501" stroke="white" stroke-width="0.7"/>
<path d="M71.0196 66.001V66.001C70.3491 66.6994 70.3491 67.8025 71.0196 68.501V68.501" stroke="white" stroke-width="0.7"/>
<path d="M73.9798 66.001V66.001C73.3093 66.6994 73.3093 67.8025 73.9798 68.501V68.501" stroke="white" stroke-width="0.7"/>
<path d="M76.94 66.001V66.001C76.2695 66.6994 76.2695 67.8025 76.94 68.501V68.501" stroke="white" stroke-width="0.7"/>
<path d="M79.9 66.001V66.001C79.2294 66.6994 79.2294 67.8025 79.9 68.501V68.501" stroke="white" stroke-width="0.7"/>
<path d="M82.8599 66.001V66.001C82.1894 66.6994 82.1894 67.8025 82.8599 68.501V68.501" stroke="white" stroke-width="0.7"/>
<path d="M85.8201 66.001V66.001C85.1496 66.6994 85.1496 67.8025 85.8201 68.501V68.501" stroke="white" stroke-width="0.7"/>
<path d="M88.7801 66.001V66.001C88.1096 66.6994 88.1096 67.8025 88.7801 68.501V68.501" stroke="white" stroke-width="0.7"/>
<path d="M91.74 66.001V66.001C91.0695 66.6994 91.0695 67.8025 91.74 68.501V68.501" stroke="white" stroke-width="0.7"/>
<path d="M94.7 66.001V66.001C94.0295 66.6994 94.0295 67.8025 94.7 68.501V68.501" stroke="white" stroke-width="0.7"/>
<path d="M97.66 66.001V66.001C96.9894 66.6994 96.9894 67.8025 97.66 68.501V68.501" stroke="white" stroke-width="0.7"/>
<path d="M100.619 66.001V66.001C99.9489 66.6994 99.9489 67.8025 100.619 68.501V68.501" stroke="white" stroke-width="0.7"/>
<path d="M103.58 66.001V66.001C102.909 66.6994 102.909 67.8025 103.58 68.501V68.501" stroke="white" stroke-width="0.7"/>
<path d="M20.7 70.998V70.998C20.0295 71.6965 20.0295 72.7996 20.7 73.498V73.498" stroke="white" stroke-width="0.7"/>
<path d="M23.66 70.998V70.998C22.9894 71.6965 22.9894 72.7996 23.66 73.498V73.498" stroke="white" stroke-width="0.7"/>
<path d="M26.6199 70.998V70.998C25.9494 71.6965 25.9494 72.7996 26.6199 73.498V73.498" stroke="white" stroke-width="0.7"/>
<path d="M29.5799 70.998V70.998C28.9094 71.6965 28.9094 72.7996 29.5799 73.498V73.498" stroke="white" stroke-width="0.7"/>
<path d="M32.5401 70.998V70.998C31.8696 71.6965 31.8696 72.7996 32.5401 73.498V73.498" stroke="white" stroke-width="0.7"/>
<path d="M35.5 70.998V70.998C34.8295 71.6965 34.8295 72.7996 35.5 73.498V73.498" stroke="white" stroke-width="0.7"/>
<path d="M38.4603 70.998V70.998C37.7897 71.6965 37.7897 72.7996 38.4603 73.498V73.498" stroke="white" stroke-width="0.7"/>
<path d="M41.4205 70.998V70.998C40.7499 71.6965 40.7499 72.7996 41.4205 73.498V73.498" stroke="white" stroke-width="0.7"/>
<path d="M44.3804 70.998V70.998C43.7099 71.6965 43.7099 72.7996 44.3804 73.498V73.498" stroke="white" stroke-width="0.7"/>
<path d="M47.3399 70.998V70.998C46.6694 71.6965 46.6694 72.7996 47.3399 73.498V73.498" stroke="white" stroke-width="0.7"/>
<path d="M50.3001 70.998V70.998C49.6296 71.6965 49.6296 72.7996 50.3001 73.498V73.498" stroke="white" stroke-width="0.7"/>
<path d="M53.2601 70.998V70.998C52.5895 71.6965 52.5895 72.7996 53.2601 73.498V73.498" stroke="white" stroke-width="0.7"/>
<path d="M56.22 70.998V70.998C55.5495 71.6965 55.5495 72.7996 56.22 73.498V73.498" stroke="white" stroke-width="0.7"/>
<path d="M59.18 70.998V70.998C58.5095 71.6965 58.5095 72.7996 59.18 73.498V73.498" stroke="white" stroke-width="0.7"/>
<path d="M62.1399 70.998V70.998C61.4694 71.6965 61.4694 72.7996 62.1399 73.498V73.498" stroke="white" stroke-width="0.7"/>
<path d="M65.0999 70.998V70.998C64.4294 71.6965 64.4294 72.7996 65.0999 73.498V73.498" stroke="white" stroke-width="0.7"/>
<path d="M68.0601 70.998V70.998C67.3896 71.6965 67.3896 72.7996 68.0601 73.498V73.498" stroke="white" stroke-width="0.7"/>
<path d="M71.0203 70.998V70.998C70.3498 71.6965 70.3498 72.7996 71.0203 73.498V73.498" stroke="white" stroke-width="0.7"/>
<path d="M73.9805 70.998V70.998C73.31 71.6965 73.31 72.7996 73.9805 73.498V73.498" stroke="white" stroke-width="0.7"/>
<path d="M76.9405 70.998V70.998C76.27 71.6965 76.27 72.7996 76.9405 73.498V73.498" stroke="white" stroke-width="0.7"/>
<path d="M79.9 70.998V70.998C79.2294 71.6965 79.2294 72.7996 79.9 73.498V73.498" stroke="white" stroke-width="0.7"/>
<path d="M82.8599 70.998V70.998C82.1894 71.6965 82.1894 72.7996 82.8599 73.498V73.498" stroke="white" stroke-width="0.7"/>
<path d="M85.8201 70.998V70.998C85.1496 71.6965 85.1496 72.7996 85.8201 73.498V73.498" stroke="white" stroke-width="0.7"/>
<path d="M88.7801 70.998V70.998C88.1096 71.6965 88.1096 72.7996 88.7801 73.498V73.498" stroke="white" stroke-width="0.7"/>
<path d="M91.74 70.998V70.998C91.0695 71.6965 91.0695 72.7996 91.74 73.498V73.498" stroke="white" stroke-width="0.7"/>
<path d="M94.7 70.998V70.998C94.0295 71.6965 94.0295 72.7996 94.7 73.498V73.498" stroke="white" stroke-width="0.7"/>
<path d="M97.66 70.998V70.998C96.9894 71.6965 96.9894 72.7996 97.66 73.498V73.498" stroke="white" stroke-width="0.7"/>
<path d="M100.62 70.998V70.998C99.9496 71.6965 99.9496 72.7996 100.62 73.498V73.498" stroke="white" stroke-width="0.7"/>
<path d="M103.58 70.998V70.998C102.91 71.6965 102.91 72.7996 103.58 73.498V73.498" stroke="white" stroke-width="0.7"/>
<g opacity="0.64">
<path fill-rule="evenodd" clip-rule="evenodd" d="M90.8983 49.9072C91.0206 49.9072 91.142 49.9184 91.2623 49.946C91.6342 50.0311 91.9505 50.2717 92.2573 50.5047C92.5454 50.7241 92.8443 50.9511 93.0923 50.9511C93.3408 50.9511 93.6393 50.7241 93.9282 50.5047C94.2346 50.2717 94.5513 50.0311 94.9232 49.946C95.3082 49.8573 95.7059 49.9372 96.0905 50.0143C96.4374 50.0835 96.7958 50.1554 97.0041 50.0543C97.2201 49.9492 97.3895 49.6175 97.5534 49.297C97.7309 48.9497 97.9142 48.5904 98.2167 48.3466C98.5219 48.1013 98.912 48.0006 99.2895 47.9027C99.6348 47.8131 99.9916 47.7204 100.14 47.5342C100.286 47.3496 100.297 46.9799 100.307 46.6222C100.318 46.229 100.33 45.8221 100.5 45.4665C100.667 45.1184 100.972 44.8594 101.268 44.6093C101.543 44.3759 101.827 44.1345 101.882 43.8959C101.932 43.6733 101.784 43.34 101.64 43.0175C101.479 42.6542 101.312 42.2786 101.312 41.8757C101.312 41.4729 101.479 41.0972 101.64 40.734C101.784 40.4115 101.932 40.0782 101.881 39.8556C101.827 39.6166 101.542 39.3752 101.267 39.1418C100.972 38.8917 100.667 38.6331 100.5 38.2846C100.329 37.9285 100.317 37.5221 100.306 37.1293C100.296 36.7716 100.286 36.4015 100.139 36.2169C99.9912 36.0307 99.6344 35.9379 99.2895 35.8484C98.9116 35.7509 98.5215 35.6498 98.2163 35.4044C97.9134 35.1611 97.7301 34.8018 97.5526 34.4541C97.3887 34.1336 97.2197 33.8023 97.0037 33.6972C96.795 33.5965 96.4366 33.668 96.0901 33.7372C95.7051 33.8139 95.3062 33.8934 94.9228 33.8055C94.5509 33.7208 94.2342 33.4798 93.9278 33.2472C93.6393 33.0274 93.3404 32.8004 93.0923 32.8004C92.8439 32.8004 92.5454 33.0274 92.2569 33.2472C91.9501 33.4798 91.6338 33.7208 91.2619 33.8055C90.8765 33.8942 90.4784 33.8139 90.0946 33.7375C89.7477 33.668 89.3893 33.5965 89.181 33.6972C88.9646 33.8023 88.7956 34.134 88.6317 34.4545C88.4542 34.8022 88.2705 35.1615 87.9676 35.4048C87.6632 35.6498 87.2727 35.7513 86.8952 35.8488C86.5503 35.9383 86.1935 36.0311 86.0451 36.2177C85.899 36.4023 85.8883 36.7716 85.8784 37.1293C85.8669 37.5225 85.8554 37.9293 85.6847 38.285C85.5176 38.6335 85.2128 38.8921 84.9175 39.1422C84.6421 39.3756 84.3579 39.6166 84.3039 39.8556C84.2535 40.0786 84.4016 40.4119 84.5448 40.734C84.706 41.0976 84.8731 41.4729 84.8731 41.8757C84.8731 42.2786 84.706 42.6542 84.5448 43.0175C84.4016 43.34 84.2535 43.6733 84.3039 43.8963C84.3579 44.1349 84.6421 44.3763 84.9179 44.6096C85.2132 44.8598 85.518 45.1188 85.6851 45.4673C85.8558 45.8225 85.8673 46.2294 85.8788 46.6222C85.8887 46.9799 85.899 47.35 86.0455 47.5346C86.1935 47.7208 86.5507 47.8135 86.896 47.9031C87.2731 48.0006 87.6636 48.1017 87.9684 48.347C88.2713 48.5904 88.455 48.9497 88.6321 49.2974C88.796 49.6179 88.9654 49.9492 89.1814 50.0543C89.3893 50.1554 89.7477 50.0839 90.0946 50.0143C90.3593 49.9616 90.6296 49.9072 90.8983 49.9072ZM93.0923 51.7502C92.578 51.7502 92.1537 51.4273 91.779 51.1423C91.5393 50.9605 91.2916 50.7723 91.0864 50.7251C90.865 50.6744 90.5522 50.7375 90.249 50.7983C89.7969 50.8886 89.2833 50.9913 88.8364 50.7739C88.3808 50.5529 88.1395 50.0797 87.9264 49.6625C87.787 49.3899 87.643 49.1082 87.4731 48.9715C87.3013 48.8333 86.9945 48.7537 86.698 48.677C86.2483 48.5603 85.7387 48.428 85.4255 48.0332C85.1136 47.6395 85.0985 47.1112 85.085 46.6452C85.0763 46.3359 85.0671 46.0162 84.9703 45.814C84.877 45.6198 84.6381 45.4172 84.4067 45.2209C84.0483 44.9176 83.6427 44.5735 83.53 44.0732C83.4208 43.59 83.6328 43.1125 83.8201 42.6908C83.9475 42.4043 84.0793 42.1078 84.0793 41.8756C84.0793 41.6434 83.9475 41.3473 83.8201 41.0607C83.6328 40.6391 83.4204 40.1611 83.53 39.6784C83.6427 39.178 84.0483 38.834 84.4067 38.5306C84.6377 38.3344 84.8766 38.1318 84.9699 37.9372C85.0671 37.7354 85.0759 37.4156 85.085 37.1059C85.0981 36.64 85.1132 36.112 85.4251 35.7188C85.7383 35.3236 86.2479 35.1913 86.6976 35.075C86.9941 34.9978 87.3005 34.9187 87.4723 34.78C87.6426 34.6434 87.7863 34.3616 87.926 34.0887C88.1391 33.6719 88.3804 33.1987 88.836 32.9773C89.2833 32.7603 89.7965 32.8622 90.249 32.9533C90.5526 33.0137 90.8654 33.076 91.086 33.026C91.2912 32.9793 91.5389 32.7911 91.7786 32.6088C92.1533 32.3239 92.578 32.001 93.0923 32.001C93.6067 32.001 94.0314 32.3239 94.4061 32.6088C94.6454 32.7907 94.893 32.9789 95.0986 33.026C95.3177 33.076 95.6325 33.0141 95.9353 32.9529C96.3881 32.8622 96.9013 32.7595 97.3486 32.9773C97.8035 33.1983 98.0452 33.6715 98.2583 34.0883C98.3976 34.3612 98.5417 34.643 98.712 34.7796C98.8838 34.9183 99.1906 34.9974 99.4871 35.0742C99.9364 35.1909 100.446 35.3228 100.76 35.718C101.072 36.1112 101.087 36.64 101.1 37.1059C101.109 37.4152 101.118 37.735 101.214 37.9372C101.308 38.1314 101.547 38.334 101.778 38.5302C102.136 38.8336 102.542 39.1772 102.655 39.678C102.764 40.1607 102.552 40.6387 102.365 41.0599C102.237 41.3469 102.105 41.6434 102.105 41.8756C102.105 42.1078 102.237 42.4043 102.365 42.6908C102.552 43.1125 102.764 43.59 102.656 44.0728C102.542 44.5731 102.136 44.9172 101.778 45.2205C101.547 45.4168 101.308 45.6194 101.215 45.814C101.118 46.0158 101.109 46.3355 101.1 46.6452C101.087 47.1112 101.072 47.6391 100.76 48.0328C100.447 48.4276 99.9368 48.5599 99.4875 48.6766C99.191 48.7533 98.8842 48.8328 98.7124 48.9711C98.5425 49.1078 98.398 49.3895 98.2591 49.6625C98.046 50.0797 97.8043 50.5525 97.349 50.7735C96.9013 50.9913 96.3881 50.8882 95.9357 50.7979C95.6329 50.7375 95.3189 50.6744 95.099 50.7251C94.8934 50.7723 94.6458 50.9601 94.4065 51.1423C94.0318 51.4273 93.6067 51.7502 93.0923 51.7502Z" fill="#FF7C00"/>
<path fill-rule="evenodd" clip-rule="evenodd" d="M91.3471 47.2067C91.4186 47.2067 91.4893 47.2137 91.56 47.2293C91.8883 47.3024 92.1319 47.5504 92.3672 47.7903C92.4978 47.9234 92.7167 48.1469 92.8105 48.1469C92.9044 48.1469 93.1232 47.9234 93.2538 47.7903C93.4891 47.5504 93.7327 47.3024 94.061 47.229C94.3989 47.1544 94.7504 47.2813 95.0603 47.3942C95.2097 47.4485 95.518 47.5606 95.5939 47.527C95.673 47.4895 95.7736 47.1883 95.8275 47.0262C95.9338 46.7067 96.044 46.3767 96.3116 46.1681C96.5796 45.9583 96.9502 45.9251 97.2777 45.8958C97.4499 45.8802 97.7714 45.8513 97.8253 45.7853C97.878 45.7208 97.8357 45.4095 97.8129 45.2424C97.7698 44.9228 97.7206 44.5611 97.8708 44.2573C98.0182 43.9585 98.3213 43.7807 98.6141 43.6093C98.7647 43.521 99.0442 43.3569 99.0646 43.2706C99.0798 43.1925 98.9076 42.9359 98.815 42.798C98.6321 42.5261 98.4252 42.2175 98.4252 41.8746C98.4252 41.5316 98.6321 41.2235 98.8146 40.9516C98.9072 40.8137 99.0794 40.5571 99.0638 40.4782C99.0438 40.3923 98.7643 40.2282 98.6137 40.1403C98.3209 39.9685 98.0178 39.7911 97.8704 39.4923C97.7206 39.1884 97.7694 38.8263 97.8125 38.5072C97.8353 38.3396 97.8776 38.0283 97.8249 37.9639C97.771 37.8979 97.4495 37.869 97.2773 37.8533C96.9498 37.824 96.5792 37.7908 96.3108 37.5811C96.0436 37.3725 95.9334 37.0425 95.8271 36.7229C95.7732 36.5612 95.673 36.2601 95.5935 36.2226C95.5212 36.1878 95.2093 36.3007 95.0603 36.355C94.7504 36.4679 94.3989 36.5952 94.061 36.5202C93.7327 36.4472 93.4891 36.1991 93.2538 35.9593C93.1232 35.8257 92.9044 35.6027 92.8105 35.6027C92.7167 35.6027 92.4978 35.8257 92.3672 35.9593C92.1319 36.1991 91.8883 36.4476 91.5596 36.5206C91.2225 36.5952 90.8707 36.4679 90.5607 36.355C90.4114 36.3007 90.1018 36.189 90.0271 36.2226C89.9477 36.2601 89.8474 36.5616 89.7931 36.7237C89.6869 37.0428 89.5766 37.3729 89.3098 37.5811C89.0418 37.7912 88.6708 37.8244 88.3433 37.8537C88.1712 37.8694 87.8496 37.8983 87.7957 37.9643C87.7434 38.0287 87.7853 38.34 87.8081 38.5072C87.8512 38.8263 87.9004 39.1884 87.7502 39.4923C87.6028 39.7911 87.2997 39.9688 87.0069 40.1403C86.8564 40.2286 86.5768 40.3926 86.5564 40.479C86.5412 40.5571 86.7134 40.8133 86.806 40.9512C86.989 41.2235 87.1958 41.5316 87.1958 41.8746C87.1958 42.2179 86.989 42.5261 86.806 42.7984C86.7134 42.9362 86.5412 43.1929 86.5568 43.2714C86.5768 43.3573 86.8564 43.521 87.0069 43.6093C87.2997 43.7807 87.6028 43.9585 87.7506 44.2573C87.9004 44.5611 87.8516 44.9228 87.8085 45.2424C87.7857 45.4095 87.7438 45.7212 87.7961 45.7857C87.85 45.8517 88.1716 45.8802 88.3437 45.8962C88.6712 45.9255 89.0422 45.9587 89.3102 46.1681C89.577 46.3767 89.6873 46.7071 89.7935 47.0266C89.8478 47.1883 89.9481 47.4899 90.0271 47.527C90.1018 47.5621 90.4118 47.4493 90.5611 47.3946C90.8064 47.3051 91.0771 47.2067 91.3471 47.2067ZM92.8104 48.9279C92.3754 48.9279 92.0647 48.6107 91.7903 48.3306C91.6581 48.1963 91.4776 48.0119 91.3829 47.9908C91.2747 47.9674 91.0243 48.0592 90.8394 48.1264C90.4743 48.2592 90.0602 48.4095 89.6799 48.2306C89.2937 48.0482 89.1559 47.6338 89.0341 47.2682C88.9742 47.0877 88.8919 46.8409 88.8117 46.7784C88.7302 46.7151 88.4646 46.6913 88.2709 46.6737C87.8803 46.6386 87.4381 46.5987 87.1721 46.273C86.9073 45.948 86.9649 45.5187 87.0164 45.1394C87.0423 44.95 87.0775 44.6898 87.0312 44.5965C86.9876 44.5082 86.7616 44.3758 86.5962 44.2793C86.2575 44.0809 85.8737 43.8559 85.7779 43.4442C85.6848 43.0442 85.926 42.6857 86.1385 42.3693C86.2535 42.1974 86.3969 41.9838 86.3969 41.8744C86.3969 41.765 86.2535 41.5514 86.1385 41.3799C85.926 41.0635 85.6848 40.7049 85.7775 40.3057C85.8737 39.8936 86.2575 39.6687 86.5958 39.4702C86.7612 39.3734 86.9872 39.2409 87.0308 39.1527C87.0771 39.0593 87.0419 38.7992 87.016 38.6093C86.9649 38.2305 86.9069 37.8012 87.1717 37.4766C87.4377 37.1508 87.8799 37.111 88.2701 37.0758C88.4642 37.0583 88.7298 37.0344 88.8113 36.9708C88.8915 36.9083 88.9738 36.6614 89.0337 36.4813C89.1559 36.1154 89.2937 35.7009 89.6799 35.5189C90.061 35.34 90.4743 35.49 90.8394 35.6228C91.0239 35.69 91.2803 35.7814 91.3825 35.7583C91.4776 35.7373 91.6581 35.5529 91.7903 35.4181C92.0647 35.1385 92.3754 34.8213 92.8104 34.8213C93.2453 34.8213 93.556 35.1385 93.8304 35.4181C93.9626 35.5529 94.1431 35.7373 94.2378 35.7583C94.3432 35.7798 94.5965 35.6896 94.7814 35.6228C95.1464 35.4896 95.5598 35.3388 95.9404 35.5189C96.3266 35.7005 96.4644 36.115 96.5862 36.481C96.6465 36.661 96.7288 36.9079 96.8091 36.9704C96.8906 37.034 97.1562 37.0579 97.3499 37.0755C97.7405 37.1106 98.1826 37.1501 98.4486 37.4762C98.7134 37.8008 98.6559 38.2305 98.6044 38.6093C98.5784 38.7992 98.5437 39.0593 98.5896 39.1527C98.6331 39.2406 98.8592 39.373 99.0245 39.4698C99.3632 39.6683 99.747 39.8933 99.8429 40.3049C99.9359 40.7045 99.6947 41.0635 99.4822 41.3799C99.3672 41.5517 99.2238 41.765 99.2238 41.8744C99.2238 41.9838 99.3672 42.1974 99.4822 42.3689C99.6947 42.6853 99.9359 43.0442 99.8433 43.4434C99.747 43.8555 99.3632 44.0805 99.0249 44.2789C98.86 44.3754 98.6335 44.5082 98.59 44.5965C98.5441 44.6898 98.5788 44.95 98.6048 45.1394C98.6559 45.5187 98.7138 45.948 98.449 46.2722C98.183 46.5983 97.7409 46.6382 97.3507 46.6733C97.1566 46.6909 96.891 46.7147 96.8095 46.7784C96.7292 46.8409 96.6469 47.0877 96.5866 47.2682C96.4648 47.6338 96.327 48.0482 95.9408 48.2303C95.5606 48.4095 95.1468 48.2596 94.7818 48.1264C94.5969 48.0592 94.3412 47.9678 94.2378 47.9904C94.1431 48.0119 93.9626 48.1959 93.8308 48.3306C93.556 48.6107 93.2453 48.9279 92.8104 48.9279Z" fill="#FF7C00"/>
<mask id="mask4_414_24614" style="mask-type:alpha" maskUnits="userSpaceOnUse" x="83" y="32" width="20" height="25">
<path fill-rule="evenodd" clip-rule="evenodd" d="M83.5 52.8278C83.5 55.0369 85.2909 56.8278 87.5 56.8278H98.685C100.894 56.8278 102.685 55.0369 102.685 52.8278V36.5645C102.685 34.3553 100.894 32.5645 98.685 32.5645H87.5C85.2909 32.5645 83.5 34.3553 83.5 36.5645V52.8278Z" fill="white"/>
</mask>
<g mask="url(#mask4_414_24614)">
<path fill-rule="evenodd" clip-rule="evenodd" d="M88.5784 40.7465C88.5784 40.9023 88.7047 41.0286 88.8605 41.0286H96.7602C96.916 41.0286 97.0423 40.9023 97.0423 40.7465C97.0423 40.5907 96.916 40.4644 96.7602 40.4644H88.8605C88.7047 40.4644 88.5784 40.5907 88.5784 40.7465Z" fill="#FF7C00"/>
<path fill-rule="evenodd" clip-rule="evenodd" d="M88.5784 41.8749C88.5784 42.0307 88.7047 42.157 88.8605 42.157H96.7602C96.916 42.157 97.0423 42.0307 97.0423 41.8749C97.0423 41.7191 96.916 41.5928 96.7602 41.5928H88.8605C88.7047 41.5928 88.5784 41.7191 88.5784 41.8749Z" fill="#FF7C00"/>
<path fill-rule="evenodd" clip-rule="evenodd" d="M88.5784 43.5683C88.5784 43.7241 88.7047 43.8504 88.8605 43.8504H96.7602C96.916 43.8504 97.0423 43.7241 97.0423 43.5683C97.0423 43.4124 96.916 43.2861 96.7602 43.2861H88.8605C88.7047 43.2861 88.5784 43.4124 88.5784 43.5683Z" fill="#FF7C00"/>
<path fill-rule="evenodd" clip-rule="evenodd" d="M92.8105 39.0208C91.237 39.0208 89.9563 40.3011 89.9563 41.8748C89.9563 43.4485 91.237 44.7288 92.8105 44.7288C94.3841 44.7288 95.6644 43.4485 95.6644 41.8748C95.6644 40.3011 94.3841 39.0208 92.8105 39.0208ZM92.8105 45.5444C90.7878 45.5444 89.1426 43.8991 89.1426 41.8767C89.1426 39.8543 90.7878 38.209 92.8105 38.209C94.8328 38.209 96.478 39.8543 96.478 41.8767C96.478 43.8991 94.8328 45.5444 92.8105 45.5444Z" fill="#FF7C00"/>
<path fill-rule="evenodd" clip-rule="evenodd" d="M87.45 56.5463C87.45 56.7021 87.5763 56.8284 87.7321 56.8284H97.8888C98.0446 56.8284 98.171 56.7021 98.171 56.5463C98.171 56.3905 98.0446 56.2642 97.8888 56.2642H87.7321C87.5763 56.2642 87.45 56.3905 87.45 56.5463Z" fill="#FF7C00"/>
<path fill-rule="evenodd" clip-rule="evenodd" d="M85.7571 53.725C85.7571 53.8808 85.8834 54.0071 86.0392 54.0071H99.5815C99.7373 54.0071 99.8637 53.8808 99.8637 53.725C99.8637 53.5692 99.7373 53.4429 99.5815 53.4429H86.0392C85.8834 53.4429 85.7571 53.5692 85.7571 53.725Z" fill="#FF7C00"/>
</g>
</g>
<defs>
<filter id="filter0_d_414_24614" x="0.5" y="0" width="122" height="94" filterUnits="userSpaceOnUse" color-interpolation-filters="sRGB">
<feFlood flood-opacity="0" result="BackgroundImageFix"/>
<feColorMatrix in="SourceAlpha" type="matrix" values="0 0 0 0 0 0 0 0 0 0 0 0 0 0 0 0 0 0 127 0" result="hardAlpha"/>
<feOffset dy="5"/>
<feGaussianBlur stdDeviation="5"/>
<feComposite in2="hardAlpha" operator="out"/>
<feColorMatrix type="matrix" values="0 0 0 0 0.203922 0 0 0 0 0.243137 0 0 0 0 0.878431 0 0 0 0.1 0"/>
<feBlend mode="normal" in2="BackgroundImageFix" result="effect1_dropShadow_414_24614"/>
<feBlend mode="normal" in="SourceGraphic" in2="effect1_dropShadow_414_24614" result="shape"/>
</filter>
<linearGradient id="paint0_linear_414_24614" x1="17.4375" y1="34.4629" x2="17.4375" y2="45.0941" gradientUnits="userSpaceOnUse">
<stop stop-color="#F4F5F7"/>
<stop offset="1" stop-color="#E5E8ED"/>
</linearGradient>
</defs>
</svg>
