<svg width="73" height="72" viewBox="0 0 73 72" fill="none" xmlns="http://www.w3.org/2000/svg">
<mask id="mask0_414_24756" style="mask-type:alpha" maskUnits="userSpaceOnUse" x="0" y="0" width="73" height="72">
<path d="M68.5 0H4.5C2.29086 0 0.5 1.79086 0.5 4V68C0.5 70.2091 2.29086 72 4.5 72H68.5C70.7091 72 72.5 70.2091 72.5 68V4C72.5 1.79086 70.7091 0 68.5 0Z" fill="white"/>
</mask>
<g mask="url(#mask0_414_24756)">
<path d="M68.5 0H4.5C2.29086 0 0.5 1.79086 0.5 4V68C0.5 70.2091 2.29086 72 4.5 72H68.5C70.7091 72 72.5 70.2091 72.5 68V4C72.5 1.79086 70.7091 0 68.5 0Z" fill="#1761C5"/>
<path opacity="0.21" d="M12.2 28.8C24.5022 28.8 34.475 18.8271 34.475 6.525C34.475 -5.77714 24.5022 -15.75 12.2 -15.75C-0.102094 -15.75 -10.075 -5.77714 -10.075 6.525C-10.075 18.8271 -0.102094 28.8 12.2 28.8Z" stroke="white" stroke-width="9"/>
<path opacity="0.21" d="M69.125 96.2998C85.2793 96.2998 98.375 83.2041 98.375 67.0498C98.375 50.8955 85.2793 37.7998 69.125 37.7998C52.9707 37.7998 39.875 50.8955 39.875 67.0498C39.875 83.2041 52.9707 96.2998 69.125 96.2998Z" stroke="white" stroke-width="9"/>
<mask id="mask1_414_24756" style="mask-type:alpha" maskUnits="userSpaceOnUse" x="27" y="37" width="19" height="32">
<path d="M29.1545 41.3874C29.3292 39.3159 31.0615 37.7236 33.1403 37.7236H39.8596C41.9384 37.7236 43.6707 39.3159 43.8454 41.3874L45.8091 64.6624C46.006 66.9959 44.1651 68.9986 41.8233 68.9986H31.1766C28.8348 68.9986 26.9939 66.9959 27.1908 64.6624L29.1545 41.3874Z" fill="white"/>
</mask>
<g mask="url(#mask1_414_24756)">
<path d="M29.1545 41.3874C29.3292 39.3159 31.0615 37.7236 33.1403 37.7236H39.8596C41.9384 37.7236 43.6707 39.3159 43.8454 41.3874L45.8091 64.6624C46.006 66.9959 44.1651 68.9986 41.8233 68.9986H31.1766C28.8348 68.9986 26.9939 66.9959 27.1908 64.6624L29.1545 41.3874Z" fill="white"/>
<path opacity="0.6" fill-rule="evenodd" clip-rule="evenodd" d="M28.9007 40.703C29.9453 43.7041 32.4399 45.5389 36.3844 46.2073C38.5962 46.5821 40.5432 46.7467 42.2253 46.7012C44.233 46.6468 45.4554 44.7238 45.1406 42.7402L44.9894 41.7874C44.6799 39.8376 42.9943 38.4052 41.0202 38.4144L30.6327 38.4628C29.464 38.4682 28.6117 39.5706 28.9007 40.703Z" fill="#1761C5"/>
</g>
<mask id="mask2_414_24756" style="mask-type:alpha" maskUnits="userSpaceOnUse" x="3" y="47" width="67" height="26">
<path d="M13.2862 52.967L25.0265 48.2241C27.0883 47.3912 29.4102 48.4133 30.3635 50.4222C32.5368 55.0015 34.5823 57.2911 36.5 57.2911C38.4194 57.2911 40.4739 54.9975 42.6635 50.4101C43.6199 48.4064 45.9392 47.3901 47.9974 48.2229L59.7191 52.9654C63.5168 54.502 66.3726 57.7327 67.4313 61.6903L68.9034 67.1931C69.5829 69.7333 67.6687 72.2268 65.0393 72.2268H7.96072C5.33128 72.2268 3.41708 69.7332 4.0966 67.1931L5.5676 61.6944C6.62695 57.7345 9.48539 54.5024 13.2862 52.967Z" fill="white"/>
</mask>
<g mask="url(#mask2_414_24756)">
<path d="M13.2862 52.9665L25.0265 48.2236C27.0883 47.3907 29.4102 48.4128 30.3635 50.4217C32.5368 55.001 34.5823 57.2906 36.5 57.2906C38.4194 57.2906 40.4739 54.997 42.6635 50.4096C43.6199 48.4059 45.9392 47.3896 47.9974 48.2224L59.7191 52.9649C63.5168 54.5015 66.3726 57.7322 67.4313 61.6898L68.9034 67.1926C69.5829 69.7328 67.6687 72.2264 65.0393 72.2264H7.96072C5.33128 72.2264 3.41708 69.7328 4.0966 67.1926L5.5676 61.6939C6.62695 57.734 9.48539 54.5019 13.2862 52.9665Z" fill="url(#paint0_linear_414_24756)"/>
<path d="M36.95 72.0017V56.0267C36.95 55.7781 36.7486 55.5767 36.5 55.5767C36.2515 55.5767 36.05 55.7781 36.05 56.0267V72.0017C36.05 72.2502 36.2515 72.4517 36.5 72.4517C36.7486 72.4517 36.95 72.2502 36.95 72.0017Z" fill="#BECAE4"/>
<path fill-rule="evenodd" clip-rule="evenodd" d="M17.1132 72.2247C17.4174 72.2247 17.6761 72.0026 17.7222 71.7019C17.8324 70.9828 16.8239 70.7003 16.5444 71.372C16.3756 71.7777 16.6738 72.2247 17.1132 72.2247Z" fill="#BECAE4"/>
<path fill-rule="evenodd" clip-rule="evenodd" d="M57.8406 72.2247C57.5364 72.2247 57.2777 72.0026 57.2317 71.7019C57.1215 70.9828 58.13 70.7002 58.4094 71.372C58.5782 71.7777 58.2801 72.2247 57.8406 72.2247Z" fill="#BECAE4"/>
</g>
<path fill-rule="evenodd" clip-rule="evenodd" d="M24.2777 48.3301L24.8937 48.0764C26.9777 47.2182 29.3356 48.2649 30.2901 50.3066C31.128 52.0988 31.9479 53.5283 32.7328 54.6132C34.0543 56.4397 35.4303 59.031 34.7039 61.1652C34.019 63.1772 33.3731 64.2908 32.766 64.5059C32.1234 64.7336 28.1947 62.1855 25.9331 56.591C25.389 55.2448 24.7034 52.749 23.8764 49.1036C23.8036 48.7824 23.9731 48.4555 24.2777 48.3301Z" fill="#002F70"/>
<path fill-rule="evenodd" clip-rule="evenodd" d="M48.7013 48.3301L48.0853 48.0764C46.0013 47.2182 43.6434 48.2649 42.6889 50.3066C41.851 52.0988 41.0311 53.5283 40.2462 54.6132C38.9247 56.4397 37.5487 59.031 38.2751 61.1652C38.96 63.1772 39.6059 64.2908 40.213 64.5059C40.8556 64.7336 44.7843 62.1855 47.0459 56.591C47.59 55.2448 48.2756 52.749 49.1026 49.1036C49.1754 48.7824 49.0059 48.4555 48.7013 48.3301Z" fill="#002F70"/>
<path fill-rule="evenodd" clip-rule="evenodd" d="M25.6352 16.7286C25.6537 14.5575 27.4322 12.8252 29.6034 12.8252H44.6383C46.8519 12.8252 48.6457 14.6253 48.6309 16.8388C48.5773 24.8604 48.4336 30.4733 48.1997 33.6774C47.7894 39.2989 43.1089 43.6502 37.4724 43.6502H36.877C31.2405 43.6502 26.56 39.2989 26.1497 33.6774C25.7565 28.2906 25.585 22.641 25.6352 16.7286Z" fill="white"/>
<path d="M31.1 32.7223C32.2183 32.7223 33.125 32.269 33.125 31.7098C33.125 31.1506 32.2183 30.6973 31.1 30.6973C29.9816 30.6973 29.075 31.1506 29.075 31.7098C29.075 32.269 29.9816 32.7223 31.1 32.7223Z" fill="#FDE0D5"/>
<path d="M43.475 32.7223C44.5933 32.7223 45.5 32.269 45.5 31.7098C45.5 31.1506 44.5933 30.6973 43.475 30.6973C42.3566 30.6973 41.45 31.1506 41.45 31.7098C41.45 32.269 42.3566 32.7223 43.475 32.7223Z" fill="#FDE0D5"/>
<path d="M32.1126 28.1246C32.6718 28.1246 33.1251 27.6713 33.1251 27.1121C33.1251 26.5529 32.6718 26.0996 32.1126 26.0996C31.5534 26.0996 31.1001 26.5529 31.1001 27.1121C31.1001 27.6713 31.5534 28.1246 32.1126 28.1246Z" fill="#002F70"/>
<path d="M42.4625 28.1246C43.0216 28.1246 43.475 27.6713 43.475 27.1121C43.475 26.5529 43.0216 26.0996 42.4625 26.0996C41.9033 26.0996 41.45 26.5529 41.45 27.1121C41.45 27.6713 41.9033 28.1246 42.4625 28.1246Z" fill="#002F70"/>
<path opacity="0.34" fill-rule="evenodd" clip-rule="evenodd" d="M29.9046 13.3899C28.626 14.0411 28.0825 15.6291 28.8682 16.8297C29.9467 18.4776 31.7568 19.1378 34.2988 18.8103C34.9608 18.725 35.587 18.5535 36.1861 18.33C38.385 17.5097 39.7681 11.1624 37.4373 11.437C34.2298 11.8149 31.7189 12.4658 29.9046 13.3899Z" fill="#325CD8"/>
<path d="M27.9941 14.6909C28.5772 16.4388 30.3838 17.5894 33.4142 18.1428" stroke="#002F70" stroke-width="0.675" stroke-linecap="round"/>
<path fill-rule="evenodd" clip-rule="evenodd" d="M27.3962 20.0583C26.9527 22.6881 23.5442 22.9667 22.9497 20.3667C21.9749 16.1039 22.4759 13.1164 24.4526 11.4044C25.7435 10.2863 26.9109 8.91512 27.475 7.30314C28.2829 4.99484 30.0178 3.797 32.6796 3.70964C38.0564 3.53318 38.9316 5.29222 43.5368 5.90939C48.1421 6.52657 51.653 10.9792 51.653 16.2068C51.653 18.8405 48.0967 18.2036 46.3986 16.1903C45.7545 15.4266 44.9747 14.9271 44.0593 14.6918C38.9849 13.3877 37.5099 16.5359 34.2119 16.5359C33.8531 16.5359 33.4976 16.5181 33.1454 16.4823C30.7356 16.2377 27.7991 17.6698 27.3962 20.0583Z" fill="#002F70"/>
<path d="M29.5757 23.4389C30.9363 22.516 32.3699 22.3511 33.8765 22.9444" stroke="#002F70" stroke-width="0.9" stroke-linecap="round"/>
<path d="M45.1262 23.4389C43.7656 22.516 42.332 22.3511 40.8254 22.9444" stroke="#002F70" stroke-width="0.9" stroke-linecap="round"/>
<path fill-rule="evenodd" clip-rule="evenodd" d="M48.2349 28.4065C48.2612 27.9904 48.3462 27.5766 48.523 27.1991C49.526 25.0573 50.7612 24.7288 52.2285 26.2135C54.0864 28.0934 52.815 32.5772 50.3204 33.4059C48.8793 33.8847 47.9996 32.1238 48.0955 30.6084L48.2349 28.4065Z" fill="white"/>
<path d="M49.5825 30.7579C49.8765 28.8512 50.4109 27.7265 51.1856 27.3838" stroke="#CCD4E6" stroke-width="0.675" stroke-linecap="round"/>
<path fill-rule="evenodd" clip-rule="evenodd" d="M26.0425 28.4065C26.0161 27.9904 25.9312 27.5766 25.7543 27.1991C24.7514 25.0573 23.5162 24.7288 22.0489 26.2135C20.191 28.0934 21.4623 32.5772 23.9569 33.4059C25.398 33.8847 26.2777 32.1238 26.1818 30.6084L26.0425 28.4065Z" fill="white"/>
<path d="M24.6948 30.7579C24.4008 28.8512 23.8665 27.7265 23.0917 27.3838" stroke="#CCD4E6" stroke-width="0.675" stroke-linecap="round"/>
<path d="M37.1527 23.3979C37.1527 23.9974 37.1527 24.7758 37.1527 25.7329C37.1527 27.1686 40.1512 31.7261 38.2069 32.294C36.9108 32.6726 36.2657 32.8493 36.2718 32.8241" stroke="#CCD4E6" stroke-width="0.9" stroke-linecap="round"/>
<path d="M34.3855 36.9253C36.6769 37.9926 38.6737 37.9926 40.3759 36.9253" stroke="#CCD4E6" stroke-width="0.675" stroke-linecap="round"/>
</g>
<defs>
<linearGradient id="paint0_linear_414_24756" x1="36.5" y1="46.7114" x2="36.5" y2="72.2264" gradientUnits="userSpaceOnUse">
<stop stop-color="#F4F5F7"/>
<stop offset="1" stop-color="#E5E8ED"/>
</linearGradient>
</defs>
</svg>
